# xmcd
#
# Track frame offsets:
#	150
#	12774
#	26002
#	39316
#	52042
#	64974
#	77864
#	89762
#	101920
#	114672
#	124690
#	138194
#
# Disc length: 2012 seconds
# Revision: 0
# Processed by: cddbd v1.5.2PL0 Copyright (c) Steve Scherf et al.
# Submitted via: dBpowerAMP V12.0
#
DISCID=a407da0c
DTITLE=Clarence Gatemouth Brown - The Original Peacock Recordings [Rounder] (tape)
DYEAR=1992
DGENRE=Blues
TTITLE0=Midnight Hour
TTITLE1=Sad Hour
TTITLE2=Ain't That Dandy
TTITLE3=That's Your Daddy Yaddy Yo
TTITLE4=Dirty Work At The Crossroads
TTITLE5=Hurry Back Good News
TTITLE6=Okie Dokie Stomp
TTITLE7=Good Looking Woman
TTITLE8=Gate's Salty Blues
TTITLE9=Just Before Dawn
TTITLE10=Depression Blues
TTITLE11=For Now So Long
EXTD=
EXTT0=
EXTT1=
EXTT2=
EXTT3=
EXTT4=
EXTT5=
EXTT6=
EXTT7=
EXTT8=
EXTT9=
EXTT10=
EXTT11=
PLAYORDER=
